<?xml version="1.0" encoding="UTF-8"?>
<svg width="512pt" height="512pt" version="1.1" viewBox="0 0 512 512" xmlns="http://www.w3.org/2000/svg">
 <path d="m257.22 488c96.418 0 200.48-28.84 200.48-75.457l-0.60156-315.5c0.39844-1.2188 0.60156-2.4805 0.60156-3.7383 0-45.5-101.48-69.301-201.7-69.301-92.16 0-185.28 20.141-199.7 58.742-1.3008 1.9609-2 4.2617-2 6.6016 0 0.67969 0.10156 1.3203 0.14062 1.9805-0.039062 0.66016-0.14062 1.3203-0.14062 1.9805v319.26c0 46.602 105.34 75.438 202.92 75.438zm-1.2188-329.36c70.398 0 141.36-11.84 177.14-34.738l0.14062 79.078 0.019531-0.019531c-0.19922 0.87891-0.30078 1.7617-0.32031 2.6602 0 15.801-60.781 45.281-176.98 45.281-36.781 0.32031-73.496-3.3008-109.54-10.801l-27.059-7.3789c-32.441-10.762-41.102-22.141-41.102-27.16v-81.617c35.941 22.879 107.1 34.699 177.7 34.699zm-143.54 97.059 28.219 7.6992c37.918 7.9609 76.578 11.801 115.32 11.5 70.539 0 141.66-11.879 177.36-34.879l0.14062 75.762 0.019531-0.019532c-0.33984 1.0781-0.51953 2.2188-0.53906 3.3398 0 15.801-60.781 45.281-176.98 45.281-36.801 0.32031-73.52-3.3008-109.54-10.781l-27.059-7.3594c-32.441-10.762-41.102-22.141-41.102-27.16v-78.836c10.719 6.5391 22.18 11.719 34.16 15.461zm144.76 208.3c-109.24 0-178.92-33.781-178.92-51.441v-58.82c10.719 6.5195 22.199 11.719 34.16 15.461l28.219 7.6797c37.918 7.9609 76.578 11.82 115.32 11.5 70.68 0 141.94-11.941 177.58-35.02l0.12109 59.199c0 18.141-67 51.441-176.48 51.441zm-1.2188-416c100.66 0 169.24 24.199 176.82 42.082-1.7188 15.961-62.281 44.559-176.82 44.559-103.02 0-172.4-25.34-177.22-43.32 4.8203-17.98 74.199-43.32 177.22-43.32z"/>
</svg>
